<svg width="64" height="64" xmlns="http://www.w3.org/2000/svg" xmlns:xlink="http://www.w3.org/1999/xlink" xml:space="preserve" overflow="hidden"><g transform="translate(-712 -200)"><path d="M726.667 221.2 726.667 220.133 750.667 220.133 750.667 221.2ZM742.667 226.533 742.667 225.467 726.667 225.467 726.667 226.533ZM741.333 236.133 736.743 236.133 725.2 243.68 725.2 236.133 719.667 236.133C718.305 236.132 717.201 235.028 717.2 233.667L717.2 214.333C717.201 212.972 718.305 211.868 719.667 211.867L756.333 211.867C757.695 211.868 758.799 212.972 758.8 214.333L758.8 229.333 759.867 229.333 759.867 214.333C759.864 212.383 758.284 210.802 756.333 210.8L719.667 210.8C717.716 210.802 716.136 212.383 716.133 214.333L716.133 233.667C716.136 235.617 717.716 237.198 719.667 237.2L724.133 237.2 724.133 245.653 737.06 237.2 741.333 237.2ZM766.533 249.2 768.333 249.2C770.284 249.198 771.864 247.617 771.867 245.667L771.867 234.333C771.864 232.383 770.284 230.802 768.333 230.8L746.333 230.8C744.383 230.802 742.802 232.383 742.8 234.333L742.8 245.667C742.802 247.617 744.383 249.198 746.333 249.2L756.04 249.2 766.533 256.704ZM768.333 231.867C769.695 231.868 770.799 232.972 770.8 234.333L770.8 245.667C770.799 247.028 769.695 248.132 768.333 248.133L765.467 248.133 765.467 254.629 756.384 248.133 746.333 248.133C744.972 248.132 743.868 247.028 743.867 245.667L743.867 234.333C743.868 232.972 744.972 231.868 746.333 231.867ZM764 237.2 764 236.133 750.667 236.133 750.667 237.2ZM760 243.867 760 242.8 750.667 242.8 750.667 243.867Z" stroke="#28485D" stroke-width="1.33333" fill="#AAD04B"/></g></svg>