<svg width="64" height="64" xmlns="http://www.w3.org/2000/svg" xmlns:xlink="http://www.w3.org/1999/xlink" xml:space="preserve" overflow="hidden"><g transform="translate(-499 -320)"><path d="M553.8 361.335 554.867 361.335 554.867 379.868 533.667 379.868 533.667 378.8 553.8 378.8ZM509.8 326.8 509.8 379.867 521.667 379.867 521.667 378.8 510.867 378.8 510.867 327.867 553.8 327.867 553.8 344 554.867 344 554.867 326.8ZM523 336.133 523 337.2 543 337.2 543 336.133ZM517.667 346.533 547 346.533 547 345.467 517.667 345.467ZM517.667 351.867 543 351.867 543 350.8 517.667 350.8ZM517.667 357.2 525.667 357.2 525.667 356.133 517.667 356.133ZM517.667 362.533 532.333 362.533 532.333 361.467 517.667 361.467ZM553.299 354.332 554.875 352.755 552.947 350.827 550.444 353.333 550.444 353.309 525.788 377.968C525.643 378.112 525.532 378.288 525.465 378.481L524.56 381.111 527.187 380.201C527.379 380.135 527.555 380.026 527.699 379.881L553.268 354.311 554.021 355.067 550.512 358.576 551.116 362.18 539.8 373.496 539.047 372.741 549.972 361.815 549.585 359.503 528.452 380.636C528.193 380.893 527.879 381.089 527.535 381.209L522.839 382.836 524.456 378.136C524.576 377.788 524.774 377.472 525.035 377.212L551.511 350.735 551.511 350.755 552.947 349.319 556.384 352.755 554.052 355.088Z" stroke="#28485D" stroke-width="1.33333" fill="#AAD04B"/></g></svg>